<svg xmlns="http://www.w3.org/2000/svg" width="128" height="128" viewBox="0 0 128 128">
  <defs>
    <linearGradient id="edge" x1="6.36" y1="9.24" x2="92.14" y2="63.27" gradientUnits="userSpaceOnUse">
      <stop offset="0" stop-color="#154067"/>
      <stop offset="1" stop-color="#070d16"/>
    </linearGradient>
    <linearGradient id="ribbon" x1="18.59" y1="118.76" x2="121.69" y2="9.24" gradientUnits="userSpaceOnUse">
      <stop offset="0" stop-color="#61d7ff"/>
      <stop offset="1" stop-color="#55f0c0"/>
    </linearGradient>
  </defs>
  <path d="m14.68182 14.386552 40.915122 0a11.01176 11.01176 28.584731 0 1 9.252937 5.041667l21.715522 33.656484a3.2692322 3.2692322 118.58473 0 1-2.747063 5.041667l-40.915121 0a11.01176 11.01176 28.584731 0 1-9.252936-5.041667l-21.715523-33.656484a3.2692322 3.2692322 118.58473 0 1 2.747062-5.041667z" fill="none" stroke="#ffffff" stroke-width="10.2901" stroke-linecap="round" stroke-linejoin="round"/>
  <path d="m81.56626 14.386552 31.47611 0a3.5548328 3.5548328 59.35444 0 1 3.11784 5.26243l-48.580815 88.702038a10.127059 10.127059 149.35444 0 1-8.882157 5.26243h-31.476088a3.5548335 3.5548335 59.354436 0 1-3.117844-5.26243l48.580798-88.702037a10.127057 10.127057 149.35444 0 1 8.882156-5.262431z" fill="none" stroke="#ffffff" stroke-width="10.2901" stroke-linejoin="round"/>
  <path d="m14.681819 14.386552h40.915125a11.01176 11.01176 28.584731 0 1 9.252937 5.041667l21.715523 33.656484a3.2692322 3.2692322 118.58473 0 1-2.747063 5.041667h-40.915125a11.01176 11.01176 28.584731 0 1-9.252937-5.041667l-21.715522-33.656484a3.2692322 3.2692322 118.58473 0 1 2.747062-5.041667z" fill="url(#edge)"/>
  <path d="m81.56626 14.386552 31.47611 0a3.5548327 3.5548327 59.354441 0 1 3.11784 5.26243l-48.580816 88.702038a10.127059 10.127059 149.35444 0 1-8.882157 5.26243h-31.476087a3.5548335 3.5548335 59.354436 0 1-3.117844-5.26243l48.580798-88.702037a10.127057 10.127057 149.35444 0 1 8.882156-5.262431z" fill="url(#ribbon)"/>
</svg>
